<svg xmlns="http://www.w3.org/2000/svg" viewBox="0 0 32 32" fill="none">
  <defs>
    <linearGradient id="g" x1="0%" y1="0%" x2="100%" y2="100%">
      <stop offset="0%" stop-color="#F59E0B"/>
      <stop offset="100%" stop-color="#EF4444"/>
    </linearGradient>
    <linearGradient id="s" x1="0%" y1="0%" x2="100%" y2="100%">
      <stop offset="0%" stop-color="#FDE68A"/>
      <stop offset="100%" stop-color="#F59E0B"/>
    </linearGradient>
  </defs>
  <!-- Background -->
  <rect width="32" height="32" rx="6" fill="#0A0A0A"/>
  <rect x="0.5" y="0.5" width="31" height="31" rx="5.5" stroke="url(#g)" stroke-width="1" fill="none" opacity="0.5"/>
  <!-- Star -->
  <polygon points="16,3 17.2,7 21,7.2 18,9.8 19,13 16,10.8 13,13 14,9.8 11,7.2 14.8,7" fill="url(#s)"/>
  <!-- M -->
  <path d="M 7 27 L 7 14 L 10.5 14 L 16 21 L 21.5 14 L 25 14 L 25 27 L 22 27 L 22 19.5 L 17.2 25.5 L 14.8 25.5 L 10 19.5 L 10 27 Z" fill="url(#g)"/>
</svg>
